<?xml version="1.0" standalone="no"?>
<!DOCTYPE svg PUBLIC "-//W3C//DTD SVG 20010904//EN"
 "http://www.w3.org/TR/2001/REC-SVG-20010904/DTD/svg10.dtd">
<svg version="1.0" xmlns="http://www.w3.org/2000/svg"
 width="160.000000pt" height="152.000000pt" viewBox="0 0 160.000000 152.000000"
 preserveAspectRatio="xMidYMid meet">

<g transform="translate(0.000000,152.000000) scale(0.100000,-0.100000)"
fill="#000000" stroke="none">
<path d="M423 1495 c-130 -56 -297 -230 -358 -371 -54 -125 -79 -314 -56 -429
59 -292 207 -484 472 -610 96 -45 189 -65 315 -65 122 0 195 13 295 51 227 87
413 292 475 521 32 121 27 308 -12 424 -39 117 -95 213 -157 269 -33 30 -64
55 -69 55 -10 0 20 -53 66 -118 149 -206 170 -495 55 -725 -99 -197 -276 -336
-486 -383 -111 -24 -272 -16 -378 20 -317 108 -512 418 -474 753 27 239 150
408 405 561 22 13 31 21 22 18 -20 -6 -24 9 -6 20 8 5 6 10 -8 15 -29 12 -66
10 -101 -6z"/>
<path d="M708 1244 c-191 -159 -268 -234 -268 -259 0 -13 5 -27 11 -30 14 -9
124 65 254 170 57 47 109 85 114 85 5 0 84 -59 175 -131 l166 -130 0 -200 0
-199 -69 0 c-146 0 -604 -40 -618 -54 -2 -2 17 -10 44 -16 32 -9 164 -14 392
-17 l344 -4 -8 258 c-4 142 -11 266 -16 275 -11 20 -396 338 -409 338 -5 0
-56 -39 -112 -86z"/>
</g>
</svg>
